<svg width="70" height="70" viewBox="0 0 70 70" fill="none" xmlns="http://www.w3.org/2000/svg">
<g id="skill-icons:linkedin" clip-path="url(#clip0_5_40)">
<g id="Group">
<path id="Vector" d="M53.5938 0H16.4062C7.34533 0 0 7.34533 0 16.4062V53.5938C0 62.6547 7.34533 70 16.4062 70H53.5938C62.6547 70 70 62.6547 70 53.5938V16.4062C70 7.34533 62.6547 0 53.5938 0Z" fill="white"/>
<path id="Vector_2" d="M53.5938 0H16.4062C7.34533 0 0 7.34533 0 16.4062V53.5938C0 62.6547 7.34533 70 16.4062 70H53.5938C62.6547 70 70 62.6547 70 53.5938V16.4062C70 7.34533 62.6547 0 53.5938 0Z" fill="#0A66C2"/>
<path id="Vector_3" d="M50.508 59.5232H58.5115C58.8016 59.5232 59.0797 59.408 59.2848 59.203C59.4899 58.9979 59.6052 58.7198 59.6053 58.4298L59.6094 41.5198C59.6094 32.6815 57.7049 25.888 47.3763 25.888C43.45 25.742 39.7474 27.7659 37.7494 31.1456C37.7396 31.162 37.7248 31.1748 37.7071 31.182C37.6894 31.1892 37.6698 31.1903 37.6514 31.1853C37.6329 31.1804 37.6166 31.1695 37.6049 31.1544C37.5933 31.1392 37.5869 31.1207 37.5867 31.1016V27.7977C37.5867 27.5076 37.4715 27.2294 37.2664 27.0243C37.0612 26.8191 36.7831 26.7039 36.493 26.7039H28.8977C28.6076 26.7039 28.3294 26.8191 28.1243 27.0243C27.9192 27.2294 27.8039 27.5076 27.8039 27.7977V58.4281C27.8039 58.7182 27.9192 58.9964 28.1243 59.2015C28.3294 59.4066 28.6076 59.5219 28.8977 59.5219H36.9007C37.1907 59.5219 37.4689 59.4066 37.6741 59.2015C37.8792 58.9964 37.9944 58.7182 37.9944 58.4281V43.2871C37.9944 39.0059 38.8065 34.8597 44.1142 34.8597C49.3464 34.8597 49.4143 39.7586 49.4143 43.5643V58.4295C49.4143 58.7196 49.5295 58.9978 49.7346 59.2029C49.9397 59.408 50.2179 59.5232 50.508 59.5232ZM10.3906 16.3045C10.3906 19.5486 13.0613 22.2179 16.3056 22.2179C19.5491 22.2176 22.2182 19.5467 22.2182 16.3032C22.2176 13.0596 19.5483 10.3906 16.3045 10.3906C13.0599 10.3906 10.3906 13.0605 10.3906 16.3045ZM12.2935 59.5232H20.3071C20.5972 59.5232 20.8754 59.408 21.0805 59.2029C21.2856 58.9978 21.4009 58.7196 21.4009 58.4295V27.7977C21.4009 27.5076 21.2856 27.2294 21.0805 27.0243C20.8754 26.8191 20.5972 26.7039 20.3071 26.7039H12.2935C12.0034 26.7039 11.7252 26.8191 11.5201 27.0243C11.315 27.2294 11.1997 27.5076 11.1997 27.7977V58.4295C11.1997 58.7196 11.315 58.9978 11.5201 59.2029C11.7252 59.408 12.0034 59.5232 12.2935 59.5232Z" fill="white"/>
</g>
</g>
<defs>
<clipPath id="clip0_5_40">
<rect width="70" height="70" fill="white"/>
</clipPath>
</defs>
</svg>
